<svg width="160" height="222" viewBox="0 0 160 222" fill="none" xmlns="http://www.w3.org/2000/svg">
<rect y="135" width="10" height="87" rx="5" fill="url(#paint0_linear_202_26)"/>
<rect x="60" y="71" width="10" height="151" rx="5" fill="url(#paint1_linear_202_26)"/>
<rect x="120" width="10" height="222" rx="5" fill="url(#paint2_linear_202_26)"/>
<rect x="150" y="40" width="10" height="182" rx="5" fill="url(#paint3_linear_202_26)"/>
<rect x="30" y="32" width="10" height="190" rx="5" fill="url(#paint4_linear_202_26)"/>
<rect x="90" y="152" width="10" height="70" rx="5" fill="url(#paint5_linear_202_26)"/>
<rect x="90" y="103" width="10" height="119" rx="5" fill="url(#paint6_linear_202_26)"/>
<defs>
<linearGradient id="paint0_linear_202_26" x1="5" y1="135" x2="5" y2="222" gradientUnits="userSpaceOnUse">
<stop stop-color="#FFD572"/>
<stop offset="1" stop-color="#FFD572"/>
</linearGradient>
<linearGradient id="paint1_linear_202_26" x1="65" y1="71" x2="65" y2="222" gradientUnits="userSpaceOnUse">
<stop stop-color="#FFD572"/>
<stop offset="1" stop-color="#FFD572"/>
</linearGradient>
<linearGradient id="paint2_linear_202_26" x1="125" y1="0" x2="125" y2="222" gradientUnits="userSpaceOnUse">
<stop stop-color="#FFD572"/>
<stop offset="1" stop-color="#FFD572"/>
</linearGradient>
<linearGradient id="paint3_linear_202_26" x1="155" y1="40" x2="155" y2="222" gradientUnits="userSpaceOnUse">
<stop stop-color="#FFD572"/>
<stop offset="1" stop-color="#FFD572"/>
</linearGradient>
<linearGradient id="paint4_linear_202_26" x1="35" y1="32" x2="35" y2="222" gradientUnits="userSpaceOnUse">
<stop stop-color="#FFD572"/>
<stop offset="1" stop-color="#FFD572"/>
</linearGradient>
<linearGradient id="paint5_linear_202_26" x1="95" y1="152" x2="95" y2="222" gradientUnits="userSpaceOnUse">
<stop stop-color="#FFD572"/>
<stop offset="1" stop-color="#FEBD38"/>
</linearGradient>
<linearGradient id="paint6_linear_202_26" x1="95" y1="103" x2="95" y2="222" gradientUnits="userSpaceOnUse">
<stop stop-color="#FFD572"/>
<stop offset="1" stop-color="#FFD572"/>
</linearGradient>
</defs>
</svg>
